<svg width="22" height="23" viewBox="0 0 22 23" fill="none" xmlns="http://www.w3.org/2000/svg">
<path d="M4.58139 14.2155C3.21167 14.2155 2.10327 13.1071 2.10327 11.7374C2.10327 10.3677 3.21167 9.25928 4.58139 9.25928C5.95111 9.25928 7.0595 10.3677 7.0595 11.7374C7.0595 13.1071 5.95111 14.2155 4.58139 14.2155Z" fill="white"/>
<path d="M17.1971 14.2155C15.8274 14.2155 14.719 13.1071 14.719 11.7374C14.719 10.3677 15.8274 9.25928 17.1971 9.25928C18.5668 9.25928 19.6752 10.3677 19.6752 11.7374C19.6752 13.1071 18.5668 14.2155 17.1971 14.2155Z" fill="white"/>
<path d="M10.889 14.2155C9.51928 14.2155 8.41089 13.1071 8.41089 11.7374C8.41089 10.3677 9.51928 9.25928 10.889 9.25928C12.2587 9.25928 13.3671 10.3677 13.3671 11.7374C13.3671 13.1071 12.2587 14.2155 10.889 14.2155Z" fill="white"/>
</svg>
